<svg width="2048" height="2048" viewBox="0 0 2048 2048" fill="none" xmlns="http://www.w3.org/2000/svg">
<g clip-path="url(#clip0_3316_147)">
<path d="M1252.38 989.426C1051.52 704.138 904.11 569.533 598.545 393.466C593.185 162.599 780.76 55.2184 1027.29 60.6144C1273.81 66.0104 1514.98 173.337 1429.23 527.718C1343.48 882.1 1252.38 989.426 1252.38 989.426Z" fill="#FA2921"/>
<path d="M1165.74 1261.41C1374.2 981.648 1456.23 799.51 1528.57 453.886C1746 377.198 1906.07 522.557 1977.38 759.033C2048.7 995.508 2021.63 1258.48 1658.73 1286.69C1295.84 1314.9 1165.74 1261.41 1165.74 1261.41Z" fill="#FFB400"/>
<path d="M887.018 1262.79C1216.58 1376.24 1414.76 1398.89 1765.37 1362.37C1904.65 1546.38 1815.35 1743.46 1612.35 1883.69C1409.35 2023.93 1151.12 2078.4 1013.51 1740.82C875.891 1403.24 887.018 1262.79 887.018 1262.79Z" fill="#18C249"/>
<path d="M798.285 991.492C792.811 1340.56 832.767 1536.33 976.132 1858.94C844.695 2048.65 629.981 2024.71 433.953 1874.85C237.926 1724.99 106.171 1495.92 383.861 1260.18C661.551 1024.44 798.285 991.492 798.285 991.492Z" fill="#1E83F7"/>
<path d="M1023.88 818.66C691.118 922.329 517.916 1021.42 256.669 1258.51C35.7525 1192.58 -8.51352 980.739 72.4709 747.409C153.455 514.079 329.6 317.221 639.789 508.006C949.979 698.79 1023.88 818.66 1023.88 818.66Z" fill="#ED79B5"/>
</g>
<defs>
<clipPath id="clip0_3316_147">
<rect width="2048" height="2048" fill="white"/>
</clipPath>
</defs>
</svg>
